# xmcd
#
# Track frame offsets:
#	150
#	13788
#	32741
#	50534
#	68510
#	80563
#	94510
#	105950
#	122488
#	137493
#	147295
#	169859
#	184478
#	199566
#	209244
#	217631
#	229063
#	247291
#	258654
#	271228
#	280824
#	291459
#
# Disc length: 4265 seconds
#
# Revision: 9
# Processed by: cddbd v1.5.2PL0 Copyright (c) Steve Scherf et al.
# Submitted via: EasyCDDAExtractor 16.0.6.1
#
DISCID=4a10a716
DTITLE=Flying Burrito Brothers - TR-692 he Guilded Palace of Sin and Burrito Del
DTITLE=uxe
DYEAR=1969
DGENRE=Country Rock
TTITLE0=Christine's Tune
TTITLE1=Sin City
TTITLE2=Do Right Woman
TTITLE3=Dark End of the Street
TTITLE4=My Uncle
TTITLE5=Wheels
TTITLE6=Juanita
TTITLE7=Hot Burrito #1
TTITLE8=Hot Burrito #2
TTITLE9=Do You Know How It Feels
TTITLE10=Hippie Boy
TTITLE11=Lazy Days
TTITLE12=Image of Me
TTITLE13=High Fashion Queen
TTITLE14=If You Gotta Go
TTITLE15=Man in the Fog
TTITLE16=Farther Along
TTITLE17=Older Guys
TTITLE18=Cody, Cody
TTITLE19=God's Own Singer
TTITLE20=Down in the Churchyard
TTITLE21=Wild Horses
EXTD=YEAR: 1969
EXTT0=
EXTT1=
EXTT2=
EXTT3=
EXTT4=
EXTT5=
EXTT6=
EXTT7=
EXTT8=
EXTT9=
EXTT10=
EXTT11=
EXTT12=
EXTT13=
EXTT14=
EXTT15=
EXTT16=
EXTT17=
EXTT18=
EXTT19=
EXTT20=
EXTT21=
PLAYORDER=
